<svg width="120" height="40" viewBox="0 0 120 40" fill="none" xmlns="http://www.w3.org/2000/svg">
<path d="M110.135 0.00013H9.53468C9.16798 0.00013 8.80568 0.00013 8.43995 0.00212999C8.1338 0.00412999 7.83009 0.00993997 7.521 0.01483C6.84951 0.0227317 6.17961 0.081806 5.5171 0.191539C4.85552 0.303662 4.21467 0.515044 3.61622 0.818537C3.0185 1.1246 2.47234 1.52229 1.99757 1.99719C1.5203 2.47076 1.12246 3.01814 0.81935 3.61828C0.5154 4.21723 0.30464 4.85905 0.19435 5.52159C0.0830109 6.1833 0.0230984 6.85263 0.01515 7.52359C0.00587 7.83018 0.00489 8.1378 0 8.44444V31.5586C0.00489 31.8691 0.00587 32.1699 0.01515 32.4805C0.0231008 33.1514 0.0830134 33.8207 0.19435 34.4824C0.304336 35.1453 0.515108 35.7875 0.81935 36.3867C1.12233 36.9849 1.52022 37.5301 1.99757 38.001C2.47054 38.478 3.01705 38.876 3.61622 39.1797C4.21467 39.484 4.85545 39.6967 5.5171 39.8105C6.17972 39.9194 6.84956 39.9785 7.521 39.9873C7.83009 39.9941 8.1338 39.998 8.43995 39.998C8.80567 40 9.168 40 9.53468 40H110.135C110.494 40 110.859 40 111.219 39.998C111.523 39.998 111.836 39.9941 112.141 39.9873C112.811 39.9789 113.479 39.9198 114.141 39.8105C114.804 39.6959 115.448 39.4833 116.049 39.1797C116.647 38.8758 117.193 38.4779 117.666 38.001C118.142 37.5282 118.541 36.9835 118.848 36.3867C119.15 35.7871 119.358 35.145 119.467 34.4824C119.578 33.8207 119.64 33.1515 119.652 32.4805C119.656 32.1699 119.656 31.8691 119.656 31.5586C119.664 31.1953 119.664 30.834 119.664 30.4648V9.53623C119.664 9.17002 119.664 8.80674 119.656 8.44444C119.656 8.1378 119.656 7.83018 119.652 7.52355C119.64 6.85253 119.578 6.18335 119.467 5.52155C119.358 4.8594 119.149 4.21762 118.848 3.61824C118.23 2.41532 117.252 1.43615 116.049 0.818447C115.448 0.515696 114.804 0.304369 114.141 0.191449C113.48 0.0812325 112.811 0.0221377 112.141 0.01469C111.836 0.00980997 111.523 0.00394999 111.219 0.00199999C110.859 0 110.494 0 110.135 0V0.00013Z" fill="#A6A6A6"/>
<path d="M8.44481 39.1252C8.14013 39.1252 7.84281 39.1213 7.54052 39.1145C6.9143 39.1063 6.28954 39.0518 5.67138 38.9514C5.09497 38.8521 4.53658 38.6674 4.01464 38.4035C3.49748 38.1417 3.02579 37.7984 2.61764 37.3869C2.20358 36.9801 1.85885 36.5084 1.59713 35.9904C1.33252 35.469 1.14939 34.9101 1.05413 34.3332C0.95125 33.7133 0.89559 33.0865 0.887626 32.4582C0.881286 32.2473 0.872986 31.5451 0.872986 31.5451V8.44457C0.872986 8.44457 0.881826 7.75316 0.887676 7.55003C0.895302 6.92271 0.950638 6.29689 1.05321 5.67796C1.14864 5.09948 1.33191 4.53898 1.59667 4.01587C1.85743 3.49818 2.20024 3.0261 2.61181 2.61792C3.02291 2.20586 3.49611 1.86085 4.01415 1.59545C4.53489 1.33234 5.09222 1.14898 5.66747 1.05151C6.28766 0.95008 6.91459 0.89524 7.54298 0.887454L8.4453 0.875244H111.214L112.127 0.887944C112.75 0.895343 113.371 0.949694 113.985 1.05053C114.566 1.14922 115.13 1.33386 115.656 1.59838C116.694 2.13323 117.539 2.9794 118.071 4.01831C118.332 4.53781 118.512 5.09374 118.606 5.66722C118.71 6.29122 118.768 6.92197 118.78 7.55443C118.783 7.83763 118.783 8.14183 118.783 8.44457C118.791 8.81957 118.791 9.1765 118.791 9.53636V30.465C118.791 30.8283 118.791 31.1828 118.783 31.5402C118.783 31.8654 118.783 32.1633 118.779 32.4699C118.768 33.091 118.71 33.7105 118.608 34.3234C118.515 34.9044 118.333 35.4677 118.068 35.9934C117.805 36.5058 117.462 36.9734 117.053 37.3791C116.644 37.7928 116.172 38.1381 115.653 38.4016C115.128 38.6676 114.566 38.8529 113.985 38.9514C113.367 39.0523 112.742 39.1068 112.116 39.1145C111.823 39.1213 111.517 39.1252 111.219 39.1252L110.135 39.1272L8.44481 39.1252Z" fill="black"/>
<path d="M24.7689 20.3006C24.7796 19.4659 25.0013 18.6476 25.4134 17.9216C25.8254 17.1956 26.4143 16.5857 27.1254 16.1485C26.6737 15.5034 26.0777 14.9724 25.3849 14.5979C24.6921 14.2233 23.9215 14.0155 23.1343 13.9908C21.455 13.8146 19.8271 14.9957 18.9714 14.9957C18.0991 14.9957 16.7816 14.0083 15.3629 14.0375C14.4452 14.0672 13.5509 14.334 12.767 14.8121C11.9831 15.2901 11.3364 15.9631 10.89 16.7654C8.95595 20.1138 10.3985 25.0349 12.2511 27.7415C13.178 29.0669 14.2613 30.5474 15.6788 30.4949C17.0658 30.4373 17.5839 29.6104 19.2582 29.6104C20.9169 29.6104 21.403 30.4949 22.8492 30.4615C24.3376 30.4373 25.2753 29.1302 26.1697 27.7923C26.8357 26.848 27.3481 25.8042 27.6881 24.6998C26.8234 24.3341 26.0855 23.7219 25.5664 22.9396C25.0472 22.1573 24.7699 21.2395 24.7689 20.3006Z" fill="white"/>
<path d="M22.0373 12.2111C22.8488 11.2369 23.2486 9.98468 23.1518 8.72046C21.912 8.85068 20.7667 9.44323 19.9442 10.3801C19.5421 10.8377 19.2341 11.3702 19.0378 11.9469C18.8416 12.5237 18.7609 13.1335 18.8005 13.7414C19.4206 13.7478 20.0341 13.6134 20.5948 13.3483C21.1555 13.0832 21.6487 12.6944 22.0373 12.2111Z" fill="white"/>
<path d="M42.3022 27.1397H37.5688L36.4321 30.4962H34.4272L38.9106 18.0781H40.9937L45.4771 30.4962H43.438L42.3022 27.1397ZM38.0591 25.5909H41.8111L39.9615 20.1436H39.9097L38.0591 25.5909Z" fill="white"/>
<path d="M55.1597 25.9697C55.1597 28.7832 53.6538 30.5908 51.3814 30.5908C50.8057 30.6209 50.2332 30.4883 49.7294 30.2082C49.2256 29.928 48.8109 29.5117 48.5327 29.0068H48.4897V33.4912H46.6313V21.4423H48.4302V22.9482H48.4644C48.7553 22.4457 49.1771 22.0316 49.6847 21.7497C50.1923 21.4679 50.7669 21.3289 51.3472 21.3476C53.645 21.3476 55.1597 23.164 55.1597 25.9697ZM53.2495 25.9697C53.2495 24.1367 52.3022 22.9316 50.8569 22.9316C49.437 22.9316 48.4819 24.1621 48.4819 25.9697C48.4819 27.7939 49.437 29.0156 50.8569 29.0156C52.3023 29.0156 53.2495 27.8193 53.2495 25.9697Z" fill="white"/>
<path d="M65.1245 25.9697C65.1245 28.7832 63.6187 30.5908 61.3462 30.5908C60.7706 30.6209 60.1981 30.4883 59.6943 30.2082C59.1905 29.928 58.7758 29.5117 58.4976 29.0068H58.4546V33.4912H56.5962V21.4423H58.395V22.9482H58.4292C58.7201 22.4457 59.1419 22.0315 59.6495 21.7497C60.1571 21.4679 60.7317 21.3289 61.312 21.3476C63.6099 21.3476 65.1245 23.164 65.1245 25.9697ZM63.2144 25.9697C63.2144 24.1367 62.2671 22.9316 60.8218 22.9316C59.4019 22.9316 58.4468 24.1621 58.4468 25.9697C58.4468 27.7939 59.4019 29.0156 60.8218 29.0156C62.2671 29.0156 63.2144 27.8193 63.2144 25.9697H63.2144Z" fill="white"/>
<path d="M71.7105 27.0362C71.8482 28.2676 73.0445 29.0761 74.6792 29.0761C76.2456 29.0761 77.3726 28.2676 77.3726 27.1572C77.3726 26.1933 76.6929 25.6162 75.0835 25.2207L73.4742 24.833C71.1939 24.2822 70.1353 23.2158 70.1353 21.4853C70.1353 19.3428 72.0025 17.8711 74.6538 17.8711C77.2778 17.8711 79.0767 19.3428 79.1372 21.4853H77.2612C77.1489 20.2461 76.1245 19.498 74.6274 19.498C73.1304 19.498 72.106 20.2549 72.106 21.3564C72.106 22.2344 72.7603 22.751 74.3608 23.1464L75.729 23.4824C78.2768 24.0849 79.3354 25.1084 79.3354 26.9247C79.3354 29.248 77.4849 30.703 74.5415 30.703C71.7876 30.703 69.9282 29.2822 69.8081 27.0361L71.7105 27.0362Z" fill="white"/>
<path d="M83.3462 19.2998V21.4424H85.0679V22.9141H83.3462V27.9053C83.3462 28.6806 83.6909 29.042 84.4478 29.042C84.6521 29.0384 84.8562 29.0241 85.0591 28.999V30.4619C84.7188 30.5254 84.373 30.5542 84.0269 30.5478C82.1939 30.5478 81.479 29.8593 81.479 28.1035V22.9141H80.1626V21.4424H81.479V19.2998H83.3462Z" fill="white"/>
<path d="M86.065 25.9697C86.065 23.1211 87.7427 21.3311 90.3589 21.3311C92.9839 21.3311 94.6539 23.1211 94.6539 25.9697C94.6539 28.8262 92.9927 30.6084 90.3589 30.6084C87.7261 30.6084 86.065 28.8262 86.065 25.9697ZM92.7603 25.9697C92.7603 24.0156 91.8648 22.8623 90.3589 22.8623C88.8531 22.8623 87.9585 24.0244 87.9585 25.9697C87.9585 27.9316 88.8531 29.0762 90.3589 29.0762C91.8648 29.0762 92.7603 27.9316 92.7603 25.9697H92.7603Z" fill="white"/>
<path d="M96.186 21.4423H97.9585V22.9833H98.0015C98.1214 22.502 98.4034 22.0766 98.8 21.7788C99.1966 21.4809 99.6836 21.3286 100.179 21.3475C100.393 21.3468 100.607 21.37 100.816 21.4169V23.1552C100.546 23.0725 100.264 23.0346 99.981 23.0428C99.711 23.0319 99.4418 23.0795 99.192 23.1824C98.9422 23.2853 98.7175 23.441 98.5336 23.6389C98.3496 23.8368 98.2106 24.0722 98.1262 24.3288C98.0418 24.5855 98.0139 24.8574 98.0444 25.1259V30.496H96.186L96.186 21.4423Z" fill="white"/>
<path d="M109.384 27.8368C109.134 29.4804 107.534 30.6083 105.486 30.6083C102.852 30.6083 101.217 28.8437 101.217 26.0126C101.217 23.1728 102.861 21.3311 105.408 21.3311C107.913 21.3311 109.488 23.0517 109.488 25.7968V26.4335H103.093V26.5458C103.064 26.879 103.105 27.2147 103.216 27.5305C103.326 27.8464 103.502 28.1352 103.732 28.3777C103.963 28.6202 104.242 28.811 104.552 28.9373C104.861 29.0636 105.195 29.1226 105.529 29.1103C105.968 29.1514 106.409 29.0497 106.785 28.8203C107.162 28.5908 107.455 28.2459 107.62 27.8368L109.384 27.8368ZM103.102 25.1347H107.628C107.645 24.8351 107.6 24.5353 107.495 24.2541C107.39 23.9729 107.229 23.7164 107.02 23.5006C106.812 23.2848 106.561 23.1145 106.283 23.0003C106.006 22.8861 105.708 22.8305 105.408 22.8369C105.105 22.8351 104.805 22.8932 104.525 23.008C104.245 23.1227 103.99 23.2918 103.776 23.5054C103.562 23.719 103.392 23.973 103.276 24.2527C103.16 24.5323 103.101 24.8321 103.102 25.1347V25.1347Z" fill="white"/>
<path d="M37.8262 8.73114C38.2158 8.70318 38.6068 8.76204 38.9709 8.90347C39.335 9.0449 39.6632 9.26538 39.9318 9.549C40.2004 9.83262 40.4027 10.1723 40.5241 10.5436C40.6455 10.9148 40.683 11.3084 40.6338 11.6959C40.6338 13.6022 39.6036 14.6979 37.8262 14.6979H35.6709V8.73114H37.8262ZM36.5977 13.8541H37.7227C38.0011 13.8707 38.2797 13.8251 38.5382 13.7205C38.7968 13.6158 39.0287 13.4549 39.2172 13.2493C39.4057 13.0438 39.546 12.7988 39.6279 12.5322C39.7097 12.2655 39.7311 11.984 39.6905 11.7081C39.7282 11.4333 39.7046 11.1535 39.6215 10.8888C39.5384 10.6242 39.3977 10.3812 39.2097 10.1773C39.0216 9.97333 38.7908 9.81352 38.5337 9.70928C38.2766 9.60505 37.9997 9.55897 37.7227 9.57434H36.5977V13.8541Z" fill="white"/>
<path d="M41.6807 12.4443C41.6524 12.1483 41.6862 11.8498 41.7801 11.5677C41.8739 11.2856 42.0257 11.0263 42.2256 10.8063C42.4256 10.5863 42.6693 10.4106 42.9411 10.2903C43.213 10.17 43.507 10.1079 43.8042 10.1079C44.1015 10.1079 44.3955 10.17 44.6673 10.2903C44.9392 10.4106 45.1829 10.5863 45.3828 10.8063C45.5828 11.0263 45.7345 11.2856 45.8284 11.5677C45.9222 11.8498 45.9561 12.1483 45.9278 12.4443C45.9566 12.7405 45.9232 13.0394 45.8296 13.322C45.736 13.6045 45.5843 13.8643 45.3843 14.0847C45.1843 14.3051 44.9404 14.4813 44.6683 14.6018C44.3962 14.7223 44.1019 14.7846 43.8042 14.7846C43.5066 14.7846 43.2123 14.7223 42.9402 14.6018C42.668 14.4813 42.4241 14.3051 42.2241 14.0847C42.0242 13.8643 41.8725 13.6045 41.7789 13.322C41.6853 13.0394 41.6519 12.7405 41.6807 12.4443ZM45.0137 12.4443C45.0137 11.4682 44.5752 10.8974 43.8057 10.8974C43.0332 10.8974 42.5987 11.4682 42.5987 12.4443C42.5987 13.4281 43.0333 13.9945 43.8057 13.9945C44.5752 13.9945 45.0137 13.4242 45.0137 12.4443H45.0137Z" fill="white"/>
<path d="M51.5732 14.6978H50.6514L49.7207 11.3813H49.6504L48.7236 14.6978H47.8105L46.5693 10.1948H47.4707L48.2773 13.6308H48.3438L49.2695 10.1948H50.1221L51.0479 13.6308H51.1182L51.9209 10.1948H52.8096L51.5732 14.6978Z" fill="white"/>
<path d="M53.8535 10.1949H54.709V10.9102H54.7754C54.8881 10.6533 55.0781 10.4379 55.3189 10.2941C55.5598 10.1503 55.8396 10.0852 56.1192 10.1079C56.3383 10.0915 56.5583 10.1245 56.7629 10.2046C56.9675 10.2847 57.1514 10.4098 57.3011 10.5707C57.4508 10.7315 57.5624 10.924 57.6276 11.1338C57.6928 11.3436 57.7099 11.5654 57.6778 11.7828V14.6979H56.7891V12.006C56.7891 11.2823 56.4746 10.9224 55.8174 10.9224C55.6686 10.9155 55.5201 10.9408 55.3821 10.9966C55.244 11.0525 55.1197 11.1375 55.0176 11.2459C54.9154 11.3543 54.8379 11.4835 54.7904 11.6246C54.7429 11.7657 54.7264 11.9155 54.7422 12.0636V14.6979H53.8535L53.8535 10.1949Z" fill="white"/>
<path d="M59.0938 8.43701H59.9824V14.6978H59.0938V8.43701Z" fill="white"/>
<path d="M61.2178 12.4444C61.1895 12.1485 61.2234 11.8499 61.3172 11.5678C61.4111 11.2857 61.5629 11.0264 61.7628 10.8064C61.9628 10.5864 62.2065 10.4106 62.4784 10.2903C62.7503 10.17 63.0443 10.1079 63.3416 10.1079C63.6388 10.1079 63.9328 10.17 64.2047 10.2903C64.4766 10.4106 64.7203 10.5864 64.9203 10.8064C65.1202 11.0264 65.272 11.2857 65.3659 11.5678C65.4597 11.8499 65.4936 12.1485 65.4653 12.4444C65.4941 12.7407 65.4607 13.0396 65.367 13.3222C65.2734 13.6047 65.1217 13.8645 64.9217 14.0849C64.7217 14.3053 64.4778 14.4815 64.2057 14.602C63.9335 14.7225 63.6392 14.7848 63.3416 14.7848C63.0439 14.7848 62.7496 14.7225 62.4775 14.602C62.2053 14.4815 61.9614 14.3053 61.7614 14.0849C61.5614 13.8645 61.4097 13.6047 61.3161 13.3222C61.2225 13.0396 61.189 12.7407 61.2178 12.4444ZM64.5508 12.4444C64.5508 11.4683 64.1123 10.8975 63.3428 10.8975C62.5703 10.8975 62.1358 11.4683 62.1358 12.4444C62.1358 13.4283 62.5703 13.9947 63.3428 13.9947C64.1123 13.9947 64.5508 13.4244 64.5508 12.4444H64.5508Z" fill="white"/>
<path d="M66.4009 13.4244C66.4009 12.6138 67.0044 12.1465 68.0757 12.0801L69.2954 12.0098V11.6211C69.2954 11.1455 68.981 10.877 68.3735 10.877C67.8774 10.877 67.5337 11.0591 67.4351 11.3775H66.5747C66.6655 10.604 67.3931 10.1079 68.4146 10.1079C69.5435 10.1079 70.1802 10.6699 70.1802 11.6211V14.6979H69.3247V14.065H69.2544C69.1117 14.292 68.9113 14.4771 68.6737 14.6013C68.436 14.7255 68.1697 14.7844 67.9019 14.7721C67.7128 14.7917 67.5218 14.7716 67.341 14.7129C67.1602 14.6542 66.9938 14.5582 66.8524 14.4313C66.711 14.3043 66.5977 14.1491 66.52 13.9757C66.4422 13.8022 66.4016 13.6145 66.4009 13.4244ZM69.2954 13.0396V12.6631L68.1958 12.7335C67.5757 12.775 67.2944 12.9859 67.2944 13.3829C67.2944 13.7882 67.646 14.024 68.1294 14.024C68.2711 14.0383 68.4142 14.024 68.5502 13.982C68.6862 13.9399 68.8123 13.8708 68.9211 13.779C69.0299 13.6872 69.1191 13.5744 69.1834 13.4473C69.2477 13.3203 69.2858 13.1817 69.2954 13.0396Z" fill="white"/>
<path d="M71.3481 12.4444C71.3481 11.0215 72.0796 10.1201 73.2173 10.1201C73.4987 10.1072 73.778 10.1746 74.0225 10.3145C74.267 10.4544 74.4667 10.661 74.5981 10.9101H74.6646V8.43701H75.5532V14.6978H74.7017V13.9863H74.6314C74.4897 14.2338 74.2831 14.4379 74.0339 14.5764C73.7846 14.7148 73.5022 14.7825 73.2173 14.772C72.0718 14.772 71.3481 13.8706 71.3481 12.4444ZM72.2661 12.4444C72.2661 13.3995 72.7163 13.9742 73.4693 13.9742C74.2183 13.9742 74.6812 13.3912 74.6812 12.4483C74.6812 11.5098 74.2134 10.9185 73.4693 10.9185C72.7212 10.9185 72.2661 11.4971 72.2661 12.4444H72.2661Z" fill="white"/>
<path d="M79.23 12.4443C79.2017 12.1483 79.2356 11.8498 79.3294 11.5677C79.4232 11.2856 79.575 11.0263 79.7749 10.8063C79.9749 10.5863 80.2186 10.4106 80.4904 10.2903C80.7623 10.17 81.0563 10.1079 81.3535 10.1079C81.6508 10.1079 81.9448 10.17 82.2167 10.2903C82.4885 10.4106 82.7322 10.5863 82.9321 10.8063C83.1321 11.0263 83.2838 11.2856 83.3777 11.5677C83.4715 11.8498 83.5054 12.1483 83.4771 12.4443C83.5059 12.7405 83.4725 13.0394 83.3789 13.322C83.2853 13.6045 83.1336 13.8643 82.9336 14.0847C82.7336 14.3051 82.4897 14.4813 82.2176 14.6018C81.9455 14.7223 81.6512 14.7846 81.3535 14.7846C81.0559 14.7846 80.7616 14.7223 80.4895 14.6018C80.2173 14.4813 79.9734 14.3051 79.7735 14.0847C79.5735 13.8643 79.4218 13.6045 79.3282 13.322C79.2346 13.0394 79.2012 12.7405 79.23 12.4443ZM82.563 12.4443C82.563 11.4682 82.1245 10.8974 81.355 10.8974C80.5826 10.8974 80.148 11.4682 80.148 12.4443C80.148 13.4281 80.5826 13.9945 81.355 13.9945C82.1245 13.9945 82.563 13.4242 82.563 12.4443Z" fill="white"/>
<path d="M84.6694 10.1949H85.5249V10.9102H85.5913C85.704 10.6533 85.894 10.4379 86.1349 10.2941C86.3757 10.1503 86.6555 10.0852 86.9351 10.1079C87.1542 10.0915 87.3742 10.1245 87.5788 10.2046C87.7834 10.2847 87.9673 10.4098 88.117 10.5707C88.2667 10.7315 88.3783 10.924 88.4435 11.1338C88.5087 11.3436 88.5258 11.5654 88.4937 11.7828V14.6979H87.605V12.006C87.605 11.2823 87.2906 10.9224 86.6333 10.9224C86.4846 10.9155 86.3361 10.9408 86.198 10.9966C86.0599 11.0525 85.9356 11.1375 85.8335 11.2459C85.7313 11.3543 85.6539 11.4835 85.6063 11.6246C85.5588 11.7657 85.5424 11.9155 85.5581 12.0636V14.6979H84.6694V10.1949Z" fill="white"/>
<path d="M93.5151 9.07373V10.2153H94.4907V10.9639H93.5151V13.2793C93.5151 13.751 93.7095 13.9575 94.1518 13.9575C94.2651 13.9572 94.3783 13.9503 94.4907 13.937V14.6772C94.3311 14.7058 94.1694 14.721 94.0073 14.7227C93.019 14.7227 92.6255 14.375 92.6255 13.5068V10.9638H91.9106V10.2153H92.6255V9.07373H93.5151Z" fill="white"/>
<path d="M95.7046 8.43701H96.5855V10.9185H96.6558C96.7739 10.6591 96.9691 10.4426 97.2148 10.2982C97.4605 10.1539 97.7447 10.0888 98.0288 10.1118C98.2467 10.1 98.4646 10.1364 98.6669 10.2184C98.8692 10.3004 99.0509 10.4261 99.199 10.5864C99.3471 10.7468 99.458 10.9378 99.5238 11.146C99.5896 11.3541 99.6086 11.5742 99.5796 11.7905V14.6978H98.69V12.0098C98.69 11.2905 98.355 10.9263 97.7271 10.9263C97.5744 10.9137 97.4207 10.9347 97.277 10.9878C97.1332 11.0408 97.0027 11.1247 96.8947 11.2334C96.7867 11.3421 96.7038 11.4732 96.6517 11.6173C96.5997 11.7614 96.5797 11.9152 96.5933 12.0679V14.6977H95.7046L95.7046 8.43701Z" fill="white"/>
<path d="M104.761 13.4818C104.641 13.8934 104.379 14.2494 104.022 14.4875C103.666 14.7257 103.236 14.8308 102.81 14.7846C102.513 14.7924 102.219 14.7356 101.946 14.618C101.674 14.5005 101.43 14.3251 101.232 14.104C101.034 13.8828 100.887 13.6212 100.8 13.3374C100.713 13.0536 100.689 12.7543 100.73 12.4603C100.691 12.1654 100.715 11.8655 100.801 11.5808C100.888 11.2961 101.034 11.0334 101.231 10.8103C101.428 10.5872 101.671 10.409 101.942 10.2878C102.214 10.1666 102.509 10.1052 102.806 10.1077C104.059 10.1077 104.815 10.9638 104.815 12.3778V12.6879H101.635V12.7377C101.621 12.9029 101.642 13.0693 101.696 13.226C101.75 13.3828 101.837 13.5265 101.95 13.6479C102.062 13.7694 102.2 13.8659 102.352 13.9313C102.504 13.9967 102.669 14.0295 102.834 14.0277C103.047 14.0532 103.262 14.0149 103.453 13.9177C103.644 13.8205 103.801 13.6688 103.906 13.4818L104.761 13.4818ZM101.635 12.0306H103.91C103.921 11.8795 103.9 11.7277 103.849 11.585C103.798 11.4422 103.718 11.3118 103.614 11.2019C103.509 11.092 103.383 11.0052 103.243 10.9471C103.103 10.8889 102.953 10.8606 102.801 10.8641C102.648 10.8622 102.495 10.891 102.353 10.949C102.21 11.0069 102.081 11.0928 101.972 11.2015C101.864 11.3102 101.778 11.4396 101.72 11.582C101.662 11.7244 101.633 11.8769 101.635 12.0306H101.635Z" fill="white"/>
</svg>
